<?xml version="1.0" standalone="no"?>
<!DOCTYPE svg PUBLIC "-//W3C//DTD SVG 20010904//EN"
 "http://www.w3.org/TR/2001/REC-SVG-20010904/DTD/svg10.dtd">
<svg version="1.0" xmlns="http://www.w3.org/2000/svg"
 width="1598.000000pt" height="493.000000pt" viewBox="0 0 1598.000000 493.000000"
 preserveAspectRatio="xMidYMid meet">
<metadata>
Created by potrace 1.16, written by Peter Selinger 2001-2019
</metadata>
<g transform="translate(0.000000,493.000000) scale(0.100000,-0.100000)"
fill="#000000" stroke="none">
<path d="M7790 4920 c-396 -38 -702 -170 -930 -400 -239 -241 -368 -552 -401
-969 -30 -393 61 -603 575 -1326 510 -717 748 -1153 906 -1665 66 -213 67
-216 73 -200 3 8 24 78 47 155 63 214 141 408 260 650 164 333 313 572 660
1060 372 522 489 726 551 954 54 197 26 558 -62 823 -149 447 -479 748 -949
868 -185 47 -519 70 -730 50z m867 -835 l2 -130 -513 -525 -514 -525 524 -3
524 -2 0 -140 0 -140 -740 0 -740 0 0 128 0 128 515 529 516 530 -501 3 -500
2 0 133 c0 74 3 137 7 140 3 4 324 6 712 5 l706 -3 2 -130z"/>
<path d="M778 4480 c-279 -47 -525 -229 -661 -488 -78 -149 -118 -374 -98
-551 17 -136 35 -202 91 -318 132 -271 379 -456 679 -508 331 -58 724 48 944
254 l37 35 0 358 0 358 -405 0 -405 0 0 -120 0 -120 275 0 275 0 0 -177 -1
-178 -42 -31 c-118 -88 -287 -136 -486 -136 -179 -1 -307 41 -433 144 -114 93
-182 197 -229 348 -19 61 -24 97 -23 195 0 142 16 213 75 334 50 102 170 228
264 278 153 81 369 99 540 46 104 -32 187 -84 271 -170 l81 -82 104 60 c57 34
108 65 113 69 14 14 -37 80 -120 160 -136 129 -271 196 -474 235 -80 16 -291
18 -372 5z"/>
<path d="M5260 3560 l0 -931 133 3 132 3 5 298 5 299 309 -301 308 -301 165 0
c91 0 163 4 161 8 -1 5 -155 154 -340 332 -186 177 -338 325 -338 329 0 3 144
150 320 326 176 176 320 323 320 327 0 5 -73 8 -162 8 l-163 0 -290 -298 -290
-298 -3 563 -2 563 -135 0 -135 0 0 -930z"/>
<path d="M9590 3550 l0 -910 135 0 135 0 2 657 3 657 281 -474 281 -475 119
-3 119 -2 282 472 283 473 0 -652 0 -653 135 0 135 0 0 910 0 910 -133 0 -132
0 -339 -570 c-186 -314 -342 -573 -346 -575 -4 -3 -161 253 -348 568 l-340
572 -136 3 -136 3 0 -911z"/>
<path d="M15180 4140 l0 -180 -150 0 -150 0 0 -120 0 -120 150 0 150 0 0 -340
c0 -267 3 -357 15 -418 38 -187 140 -305 300 -346 78 -21 239 -21 318 0 47 12
147 54 164 68 4 3 -56 179 -66 195 -8 12 -18 10 -63 -10 -45 -20 -69 -24 -155
-24 -112 0 -129 7 -184 76 -52 64 -59 120 -59 476 l0 323 245 0 245 0 0 120 0
120 -245 0 -245 0 0 180 0 180 -135 0 -135 0 0 -180z"/>
<path d="M12399 3989 c-156 -16 -291 -82 -400 -196 -76 -79 -117 -146 -156
-258 -26 -74 -27 -91 -27 -235 0 -144 1 -161 27 -235 42 -119 81 -181 171
-270 138 -137 289 -195 506 -195 185 0 346 52 479 154 54 42 129 123 120 130
-30 23 -185 129 -194 132 -7 3 -35 -17 -63 -45 -140 -140 -389 -174 -576 -79
-93 47 -190 174 -211 276 l-7 32 545 0 546 0 7 58 c10 78 -9 223 -40 313 -29
83 -98 190 -158 244 -99 90 -244 157 -368 170 -111 12 -126 12 -201 4z m236
-255 c146 -40 234 -138 269 -296 l6 -28 -420 0 -421 0 6 23 c16 52 65 146 95
181 108 122 289 169 465 120z"/>
<path d="M13969 3989 c-157 -16 -294 -83 -401 -197 -76 -81 -116 -147 -155
-257 -26 -74 -27 -91 -27 -235 0 -144 1 -161 27 -235 42 -119 81 -181 171
-270 137 -136 290 -195 506 -195 185 0 346 52 479 154 54 42 129 123 120 130
-30 23 -185 129 -194 132 -7 3 -35 -17 -63 -45 -146 -146 -410 -176 -595 -67
-85 49 -171 169 -192 264 l-7 32 545 0 546 0 7 58 c15 124 -25 313 -91 427
-91 155 -290 281 -475 300 -111 12 -126 12 -201 4z m236 -255 c146 -40 234
-138 269 -296 l6 -28 -420 0 -421 0 6 23 c3 12 22 54 40 93 89 183 303 269
520 208z"/>
<path d="M2543 3971 c-234 -58 -416 -241 -484 -486 -29 -106 -29 -267 0 -378
59 -226 236 -406 471 -479 99 -30 316 -33 425 -4 112 29 226 90 305 163 105
97 106 89 -10 167 -55 36 -102 66 -106 66 -3 0 -17 -14 -31 -31 -36 -42 -129
-103 -188 -123 -157 -54 -345 -29 -467 61 -69 50 -131 147 -152 236 l-6 27
545 0 545 0 0 113 c0 147 -13 212 -65 324 -61 129 -156 225 -287 288 -51 25
-124 52 -163 60 -94 20 -242 18 -332 -4z m278 -225 c150 -32 253 -122 293
-256 30 -100 72 -90 -399 -90 l-415 0 6 28 c13 58 65 154 108 200 103 110 248
151 407 118z"/>
<path d="M4113 3971 c-234 -58 -416 -241 -484 -486 -29 -106 -29 -267 0 -378
59 -226 236 -406 471 -479 99 -30 316 -33 425 -4 112 29 226 90 305 163 105
97 106 89 -10 167 -55 36 -102 66 -106 66 -3 0 -17 -14 -31 -31 -36 -42 -129
-103 -188 -123 -157 -54 -345 -29 -467 61 -69 50 -131 147 -152 236 l-6 27
545 0 545 0 0 113 c0 147 -13 212 -65 324 -61 129 -156 225 -287 288 -51 25
-124 52 -163 60 -94 20 -242 18 -332 -4z m278 -225 c150 -32 253 -122 293
-256 30 -100 72 -90 -399 -90 l-415 0 6 28 c13 58 65 154 108 200 103 110 248
151 407 118z"/>
<path d="M12890 2270 c0 -163 1 -170 20 -170 18 0 20 7 20 58 l1 57 22 -26
c12 -14 33 -40 47 -58 18 -24 32 -32 48 -30 22 4 21 7 -27 68 l-50 65 40 47
c44 53 46 59 20 59 -10 0 -37 -21 -60 -47 l-40 -48 -1 98 c0 90 -1 97 -20 97
-19 0 -20 -7 -20 -170z"/>
<path d="M14300 2370 c0 -20 -5 -30 -15 -30 -8 0 -15 -7 -15 -15 0 -8 7 -15
15 -15 12 0 15 -17 15 -89 0 -110 8 -121 85 -121 44 0 57 4 69 22 23 33 21 68
-4 68 -11 0 -20 -6 -20 -14 0 -18 -27 -46 -45 -46 -32 0 -45 30 -45 106 l0 74
60 0 c47 0 60 3 60 15 0 12 -13 15 -60 15 l-60 0 0 30 c0 23 -4 30 -20 30 -16
0 -20 -7 -20 -30z"/>
<path d="M12101 2331 c-18 -18 -21 -33 -21 -106 0 -107 13 -125 93 -125 29 0
58 5 65 12 9 9 12 7 12 -12 0 -42 -15 -55 -65 -55 -34 0 -49 5 -56 18 -14 24
-49 22 -49 -2 0 -33 38 -51 107 -51 99 0 103 7 103 185 l0 145 -27 0 c-16 1
-53 3 -85 6 -48 5 -59 3 -77 -15z m116 -26 c12 -9 25 -31 29 -50 14 -77 -25
-133 -85 -120 -26 6 -31 12 -37 50 -8 59 3 123 24 128 32 9 48 7 69 -8z"/>
<path d="M12370 2330 c-17 -17 -20 -33 -20 -105 0 -111 12 -125 105 -125 70 0
105 20 105 60 0 28 -28 25 -57 -6 -20 -22 -30 -25 -60 -21 -44 7 -43 6 -50 51
l-6 36 87 0 86 0 0 45 c0 67 -23 85 -105 85 -52 0 -69 -4 -85 -20z"/>
<path d="M12640 2330 c-17 -17 -20 -33 -20 -105 0 -111 12 -125 105 -125 70 0
105 20 105 60 0 28 -28 25 -57 -6 -20 -22 -30 -25 -60 -21 -44 7 -43 6 -50 51
l-6 36 87 0 86 0 0 45 c0 67 -23 85 -105 85 -52 0 -69 -4 -85 -20z"/>
<path d="M13416 2341 c-3 -4 -17 -6 -31 -3 l-25 4 0 -121 c0 -112 1 -121 19
-121 17 0 19 10 23 95 2 52 8 99 13 104 20 20 62 23 79 6 12 -13 16 -37 16
-111 0 -86 2 -94 19 -94 17 0 19 9 23 95 3 99 8 110 48 119 47 11 55 -5 58
-114 4 -90 6 -100 23 -100 18 0 19 8 19 108 0 93 -3 111 -18 125 -24 22 -105
23 -122 2 -12 -14 -15 -14 -30 0 -18 16 -105 21 -114 6z"/>
<path d="M13780 2330 c-17 -17 -20 -33 -20 -105 0 -111 12 -125 105 -125 70 0
105 20 105 60 0 28 -28 25 -57 -6 -20 -22 -30 -25 -60 -21 -44 7 -43 6 -50 51
l-6 36 87 0 86 0 0 45 c0 67 -23 85 -105 85 -52 0 -69 -4 -85 -20z"/>
<path d="M14050 2330 c-17 -17 -20 -33 -20 -105 0 -111 12 -125 105 -125 70 0
105 20 105 60 0 28 -28 25 -57 -6 -20 -22 -30 -25 -60 -21 -44 7 -43 6 -50 51
l-6 36 87 0 86 0 0 45 c0 67 -23 85 -105 85 -52 0 -69 -4 -85 -20z"/>
<path d="M14700 2330 c-17 -17 -20 -33 -20 -105 0 -111 12 -125 105 -125 73 0
105 20 105 65 0 34 -37 35 -46 1 -7 -28 -45 -41 -87 -31 -22 6 -27 15 -33 50
-3 24 -3 61 1 83 5 32 12 42 32 47 38 9 80 -3 86 -26 7 -26 47 -26 47 1 0 40
-35 60 -105 60 -52 0 -69 -4 -85 -20z"/>
<path d="M14970 2330 c-17 -17 -20 -33 -20 -105 0 -111 12 -125 105 -125 93 0
105 14 105 125 0 111 -12 125 -105 125 -52 0 -69 -4 -85 -20z m117 -16 c26 -7
39 -68 28 -132 -7 -45 -33 -58 -86 -47 -24 5 -29 12 -35 50 -16 107 15 150 93
129z"/>
<path d="M15276 2341 c-3 -4 -17 -6 -31 -3 l-25 4 0 -121 c0 -112 1 -121 19
-121 17 0 19 10 23 95 2 52 8 99 13 104 20 20 62 23 79 6 12 -13 16 -37 16
-111 0 -86 2 -94 19 -94 17 0 19 9 23 95 3 99 8 110 48 119 47 11 55 -5 58
-114 4 -90 6 -100 23 -100 18 0 19 8 19 108 0 93 -3 111 -18 125 -24 22 -105
23 -122 2 -12 -14 -15 -14 -30 0 -18 16 -105 21 -114 6z"/>
<path d="M10840 2333 c0 -8 44 -177 56 -215 3 -12 15 -18 34 -18 27 0 29 4 51
85 12 47 25 85 28 85 4 0 12 -21 19 -47 7 -27 17 -65 23 -85 8 -33 14 -38 39
-38 26 0 30 5 40 43 7 23 20 73 31 112 23 86 23 85 -1 85 -20 0 -22 -5 -51
-122 -6 -27 -15 -48 -19 -48 -4 0 -17 38 -29 85 -22 81 -24 85 -51 85 -26 0
-30 -5 -44 -55 -9 -30 -19 -68 -22 -85 -7 -31 -24 -52 -24 -29 0 7 -9 48 -21
91 -17 62 -25 78 -40 78 -10 0 -19 -3 -19 -7z"/>
<path d="M11200 2333 c0 -8 44 -177 56 -215 3 -12 15 -18 34 -18 27 0 29 4 51
85 12 47 25 85 28 85 4 0 12 -21 19 -47 7 -27 17 -65 23 -85 8 -33 14 -38 39
-38 26 0 30 5 40 43 7 23 20 73 31 112 23 86 23 85 -1 85 -20 0 -22 -5 -51
-122 -6 -27 -15 -48 -19 -48 -4 0 -17 38 -29 85 -22 81 -24 85 -51 85 -26 0
-30 -5 -44 -55 -9 -30 -19 -68 -22 -85 -7 -31 -24 -52 -24 -29 0 7 -9 48 -21
91 -17 62 -25 78 -40 78 -10 0 -19 -3 -19 -7z"/>
<path d="M11570 2333 c0 -8 44 -177 56 -215 3 -12 15 -18 34 -18 27 0 29 4 51
85 12 47 25 85 28 85 4 0 12 -21 19 -47 7 -27 17 -65 23 -85 8 -33 14 -38 39
-38 26 0 30 5 40 43 7 23 20 73 31 112 23 86 23 85 -1 85 -20 0 -22 -5 -51
-122 -6 -27 -15 -48 -19 -48 -4 0 -17 38 -29 85 -22 81 -24 85 -51 85 -26 0
-30 -5 -44 -55 -9 -30 -19 -68 -22 -85 -7 -31 -24 -52 -24 -29 0 7 -9 48 -21
91 -17 62 -25 78 -40 78 -10 0 -19 -3 -19 -7z"/>
<path d="M13110 2325 c0 -12 15 -15 71 -15 l70 0 -70 -82 c-42 -50 -71 -92
-71 -105 0 -22 3 -23 95 -23 77 0 95 3 95 15 0 11 -17 15 -72 17 l-71 3 71 83
c40 46 72 92 72 103 0 17 -8 19 -95 19 -78 0 -95 -3 -95 -15z"/>
<path d="M8824 1286 c-17 -8 -36 -27 -43 -43 -25 -61 14 -116 92 -128 179 -28
418 -105 572 -183 115 -59 218 -155 235 -221 11 -41 9 -48 -17 -100 -90 -177
-472 -332 -984 -401 -199 -27 -631 -38 -845 -21 -604 48 -1096 223 -1194 426
-53 110 34 221 262 336 84 42 98 53 107 82 20 60 -20 117 -82 117 -36 0 -190
-76 -272 -135 -131 -93 -205 -211 -206 -327 -1 -114 32 -188 126 -281 326
-320 1264 -482 2140 -371 573 72 1001 265 1115 501 32 64 38 173 15 242 -75
228 -428 417 -960 515 -16 3 -44 -1 -61 -8z"/>
</g>
</svg>
